<?xml version="1.0" encoding="UTF-8" standalone="no"?>
<svg
   width="100%"
   height="auto"
   viewBox="0 0 300 300"
   version="1.1"
   preserveAspectRatio="xMidYMid meet"
   style="max-width: 100%; max-height: 70vh;"
   id="svg1"
   sodipodi:docname="Kamon Vector.svg"
   inkscape:version="1.4 (e7c3feb1, 2024-10-09)"
   inkscape:export-filename="Kamon Vector.png"
   inkscape:export-xdpi="300"
   inkscape:export-ydpi="300"
   xmlns:inkscape="http://www.inkscape.org/namespaces/inkscape"
   xmlns:sodipodi="http://sodipodi.sourceforge.net/DTD/sodipodi-0.dtd"
   xmlns="http://www.w3.org/2000/svg"
   xmlns:svg="http://www.w3.org/2000/svg">
  <defs
     id="defs1" />
  <sodipodi:namedview
     id="namedview1"
     pagecolor="#ffffff"
     bordercolor="#000000"
     borderopacity="0.25"
     inkscape:showpageshadow="2"
     inkscape:pageopacity="0.0"
     inkscape:pagecheckerboard="0"
     inkscape:deskcolor="#d1d1d1"
     inkscape:zoom="1.93"
     inkscape:cx="42.487047"
     inkscape:cy="164.76684"
     inkscape:window-width="1952"
     inkscape:window-height="1343"
     inkscape:window-x="424"
     inkscape:window-y="37"
     inkscape:window-maximized="0"
     inkscape:current-layer="svg1"
     inkscape:export-bgcolor="#ffffff4d" />
  <path
     d="m 137.21148,1.7745319 c -21.343,3.0420001 -36.781,7.4870001 -51.634,14.8680001 -41.032998,20.389 -69.992998,57.496 -80.026998,102.539998 -2.034,9.133 -3.516625,13.26714 -3.516625,31.09814 0,17.831 1.482625,21.76886 3.516625,30.90186 13.236,59.416 58.581,103.598 118.696998,115.653 13.518,2.71 42.442,2.475 56.068,-0.457 46.721,-10.053 83.617,-38.341 104.387,-80.031 15.11,-30.33 19.345,-64.796 12.063,-98.163 -6.781,-31.066998 -24.709,-61.019998 -48.46,-80.959998 -20.664,-17.349 -43.757,-28.477 -69.594,-33.5370001 -8.118,-1.589 -35.057,-2.832 -41.5,-1.913 m 0,27.0970001 c -28.973,3.755 -54.016,16.451 -74.271998,37.652 -14.416,15.089 -24.399,32.924998 -30.032,53.658998 -2.382,8.767 -2.581,11.082 -2.581,30 0,18.918 0.199,21.233 2.581,30 13.081,48.148 50.971998,82.604 99.647998,90.616 13.665,2.249 34.284,1.401 47.241,-1.943 36.303,-9.37 64.405,-31.73 80.652,-64.173 14.325,-28.607 16.754,-62.855 6.61,-93.21 -12.235,-36.609998 -42.305,-66.072998 -79.343,-77.736998 -14.557,-4.585 -36.418,-6.69 -50.504,-4.864 m -3.5,9.345 c -9.075,3.783 -17.785,7.341 -19.356,7.907 l -2.856,1.029 4.638,5.159 c 17.058,18.972 30.301,49.739998 31.795,73.870998 0.265,4.279 0.439,4.515 3.529,4.813 3.169,0.306 3.25,0.215 3.25,-3.619 0,-10.74 5.029,-29.895 11.56,-44.029998 3.984,-8.624 14.255,-24.425 20.415,-31.408 4.174,-4.732 4.179,-4.747 1.855,-5.671 -1.281,-0.509 -10.13,-4.112 -19.664,-8.005 -9.534,-3.894 -17.634,-7.045 -18,-7.002 -0.366,0.043 -8.091,3.173 -17.166,6.956 m -48.049,16.268 c -2.503,0.708 -6.196,2.304 -8.207,3.547 -11.476998,7.094 -20.783998,26.104 -17.896998,36.558998 0.81,2.935 0.725,3.592 -0.467,3.592 -5.599,0 -15.813,9.579 -20.881,19.581 -2.671,5.272 -2.999,6.902 -2.999,14.919 0,7.828 0.364,9.741 2.794,14.69 3.613,7.356 11.9,14.971 19.459,17.881 15.243,5.866 46.122998,2.276 69.545998,-8.085 4.326,-1.914 4.466,-2.119 4.946,-7.228 0.272,-2.892 0.811,-6.006 1.198,-6.92 0.578,-1.366 -0.244,-1.856 -4.62,-2.754 -2.928,-0.601 -6.673,-1.203 -8.323,-1.338 -2.763,-0.227 -3.024,-0.579 -3.305,-4.448 -0.291,-4.008 -0.12,-4.296 3.714,-6.251 l 4.019,-2.051 1.148,2.146 c 0.632,1.181 2.956,4.107 5.164,6.503 l 4.016,4.356 3.875,-3.5 c 2.131,-1.926 4.548,-3.501 5.372,-3.501 1.854,0 1.856,-1.235 0.024,-12.53 -5.046,-31.110998 -18.63,-55.754998 -34.71,-62.971998 -7.298,-3.275 -16.921,-4.16 -23.866,-2.196 m 112.978,0.002 c -18.121,5.138 -32.301,26.433 -38.771,58.224998 -3.781,18.578 -3.824,17.891 1.306,20.897 2.452,1.437 4.83,3.276 5.283,4.087 1.201,2.146 4.303,-0.267 8.326,-6.476 l 3.2,-4.938 3.863,1.971 c 3.588,1.83 3.864,2.28 3.864,6.306 v 4.335 l -6.262,0.585 c -9.835,0.918 -9.738,0.827 -9.064,8.543 0.321,3.664 0.863,6.942 1.204,7.285 1.284,1.29 17.336,6.939 26.799,9.433 12.095,3.186 30.151,4.327 39.47,2.494 24.378,-4.796 37.01,-29.02 26.229,-50.297 -3.319,-6.548 -13.903,-17.272 -17.919,-18.154 l -2.983,-0.655 -0.004,-7.721998 c -0.002,-6.81 -0.433,-8.628 -3.642,-15.379 -6.426,-13.515 -16.099,-20.522 -29.538,-21.395 -3.941,-0.256 -8.708,0.103 -11.361,0.855 m -54.528,80.600998 c -6.376,2.896 -10.0903,7.228 -10.0903,15.272 0,7.746 2.9683,10.945 9.2833,14.557 6.949,3.973 15.541,2.459 20.676,-3.643 7.452,-8.857 4.712,-21.47 -5.691,-26.195 -5.164,-2.345 -8.999,-2.342 -14.178,0.009 m -19.125,25.694 c -9.014,4.275 -22.342,7.887 -34.953,9.474 -11.052,1.392 -31.299998,0.671 -41.072998,-1.461 -7.511,-1.639 -7.127,-4.085 -3.44,21.873 l 2.697,18.985 16.33,12.765 c 8.981,7.021 16.659998,12.765 17.063998,12.765 0.403,0 1.522,-2.5 2.485,-5.555 3.054,-9.688 12.512,-27.224 20.158,-37.374 7.762,-10.305 14.964,-17.472 24.956,-24.837 3.3,-2.433 6.129,-4.547 6.287,-4.699 0.468,-0.45 -2.054,-5.543 -2.698,-5.448 -0.324,0.048 -3.84,1.629 -7.813,3.512 m 43.256,-1.007 c -0.843,1.285 -1.532,2.515 -1.532,2.731 0,0.217 2.487,2.045 5.526,4.063 17.78,11.805 35.159,34.558 44.464,58.214 2.141,5.445 4.295,9.9 4.786,9.9 0.491,0 8.113,-5.595 16.937,-12.433 l 16.044,-12.433 2.633,-19.067 c 3.555,-25.742 3.926,-23.509 -3.64,-21.896 -3.437,0.733 -11.875,1.612 -18.75,1.954 -20.554,1.023 -38.434,-2.045 -56.218,-9.646 l -8.718,-3.726 -1.532,2.339 m -5.269,6.129 c -1.23,0.828 -3.93,2.099 -6,2.824 -4.433,1.553 -4.535,2.996 -0.791,11.175 l 2.418,5.282 -3.612,2.455 c -1.987,1.35 -4.099,2.176 -4.695,1.835 -0.596,-0.341 -2.258,-1.433 -3.695,-2.426 l -2.612,-1.806 2.35,-4.78 c 1.293,-2.629 2.637,-6.243 2.987,-8.03 0.575,-2.933 0.405,-3.25 -1.738,-3.254 -1.306,-0.002 -3.848,-0.902 -5.649,-2 -1.801,-1.098 -3.776,-1.996 -4.39,-1.996 -1.658,0 -14.42,10.544 -21.77,17.986 -14.962,15.15 -25.066,33.937 -25.066,46.606 0,10.266 6.452,22.871 14.565,28.453 7.348,5.055 12.302,6.277 23.287,5.745 10.295,-0.499 17.017,-2.662 20.512,-6.6 l 1.865,-2.1 3.635,2.873 c 7.683,6.074 24.803,8.004 35.496,4.004 16.588,-6.207 25.344,-25.498 19.799,-43.618 -5.056,-16.522 -18.131,-32.977 -40.159,-50.545 -4.213,-3.359 -4.643,-3.492 -6.737,-2.083"
     stroke="none"
     fill="#000000"
     fill-rule="evenodd"
     id="path1"
     sodipodi:nodetypes="cccscccccccccccscccccccccccccsccccsccccscsccccccccccccccsccccccccccscccccccccccsccsccccccccccscccccccsccssccccccccccccscccccsscsccccccscc" />
</svg>
